<svg height="480pt" viewBox="0 0 480 480" width="480pt" xmlns="http://www.w3.org/2000/svg">
    <g fill="#695b52">
        <path d="m152 416h16v48h-16zm0 0"/>
        <path d="m96 304-96 56 16 56h80"/>
        <path d="m224 304 96 56-16 56h-80"/>
    </g>
    <path d="m160 0c-35.34375 0-64 28.65625-64 64v208h128v-208c0-35.34375-28.65625-64-64-64zm0 0" fill="#857970"/>
    <path d="m96 240h128v32h-128zm0 0" fill="#695b52"/>
    <path d="m96 80h128v32h-128zm0 0" fill="#695b52"/>
    <path d="m112 272h96v32h-96zm0 0" fill="#8892a0"/>
    <path d="m224 304v176h-32v-56h-64v56h-32v-176zm0 0" fill="#857970"/>
    <path d="m480 104c0 57.4375-46.5625 104-104 104s-104-46.5625-104-104 46.5625-104 104-104 104 46.5625 104 104zm0 0"
          fill="#b8cbd9"/>
    <path d="m272 104c0 36.441406 18.777344 68.457031 47.144531 87.023438 63.542969-7.503907 112.855469-61.464844 112.855469-127.023438 0-19.40625-4.449219-37.734375-12.175781-54.214844-13.328125-6.21875-28.144531-9.785156-43.824219-9.785156-57.441406 0-104 46.558594-104 104zm0 0"
          fill="#e8eff4"/>
    <path d="m371.480469 115.824219-38.351563 46.023437c-17.671875-13.121094-29.128906-34.144531-29.128906-57.847656h56"
          fill="red"/>
    <path d="m380.792969 116.144531 38.085937 45.703125c17.664063-13.121094 29.121094-34.144531 29.121094-57.847656h-56"
          fill="red"/>
    <path d="m382.015625 91.464844 28.839844-50.480469c-10.320313-5.71875-22.207031-8.984375-34.855469-8.984375s-24.535156 3.265625-34.863281 8.992188l28.839843 50.480468"
          fill="red"/>
    <path d="m392 104c0 8.835938-7.164062 16-16 16s-16-7.164062-16-16 7.164062-16 16-16 16 7.164062 16 16zm0 0"
          fill="#fff"/>
</svg>