<?xml version="1.0"?>
<svg xmlns="http://www.w3.org/2000/svg" viewBox="0 0 64 64" width="512" height="512"><g id="flat"><path d="M36,35V57a4,4,0,0,1-4,4h0a4,4,0,0,1-4-4V35l4-8Z" style="fill:#7d8d9c"/><path d="M14,17V39a4,4,0,0,1-4,4h0a4,4,0,0,1-4-4V17l4-8Z" style="fill:#7d8d9c"/><path d="M58,23V45a4,4,0,0,1-4,4h0a4,4,0,0,1-4-4V23l4-8Z" style="fill:#7d8d9c"/><polygon points="28 35 25 32 25 27 32 27 28 35" style="fill:#38495c"/><polygon points="36 35 39 32 39 27 32 27 36 35" style="fill:#38495c"/><rect x="26" y="43" width="12" height="8" transform="translate(-15 79) rotate(-90)" style="fill:#dd3e46"/><rect x="31" y="36" width="2" height="5" style="fill:#38495c"/><polygon points="6 17 3 14 3 9 10 9 6 17" style="fill:#38495c"/><polygon points="14 17 17 14 17 9 10 9 14 17" style="fill:#38495c"/><rect x="4" y="25" width="12" height="8" transform="translate(-19 39) rotate(-90)" style="fill:#dd3e46"/><rect x="9" y="18" width="2" height="5" style="fill:#38495c"/><polygon points="50 23 47 20 47 15 54 15 50 23" style="fill:#38495c"/><polygon points="58 23 61 20 61 15 54 15 58 23" style="fill:#38495c"/><rect x="48" y="31" width="12" height="8" transform="translate(19 89) rotate(-90)" style="fill:#dd3e46"/><rect x="53" y="24" width="2" height="5" style="fill:#38495c"/><rect x="31" y="10" width="2" height="14" style="fill:#cfdfe8"/><rect x="25" y="8" width="2" height="14" style="fill:#cfdfe8"/><rect x="18" y="18" width="2" height="14" style="fill:#cfdfe8"/><rect x="44" y="26" width="2" height="14" style="fill:#cfdfe8"/><rect x="37" y="8" width="2" height="14" style="fill:#cfdfe8"/><rect x="50" y="2" width="2" height="10" style="fill:#cfdfe8"/><rect x="56" y="2" width="2" height="10" style="fill:#cfdfe8"/><rect x="6" y="2" width="2" height="4" style="fill:#cfdfe8"/><rect x="12" y="2" width="2" height="4" style="fill:#cfdfe8"/></g></svg>
